<svg width="90" height="90" viewBox="0 0 90 90" fill="none" xmlns="http://www.w3.org/2000/svg">
<g clip-path="url(#clip0_2295_1783)">
<rect width="90" height="90" transform="matrix(-1 0 0 1 90 0)" fill="#F3F3F3"/>
<path d="M34.6691 71.8852L33.0402 73.2143L30.2534 80.1153L31.0678 84.8304L54.8151 81.4441L64.6741 67.813L60.1304 63.3121C59.9875 60.4402 59.9246 53.9333 60.8162 50.8813C61.7078 47.8293 63.7596 42.8369 64.6741 40.7222L66.3458 34.4211L54.7722 11.6168L48.9426 9.60254C45.8849 9.34535 39.2722 8.98528 37.2833 9.60254C34.7971 10.3741 29.1389 17.4039 25.7099 22.3334C22.9668 26.277 23.4237 29.5774 23.9951 30.7347C23.0808 32.7209 21.2093 37.0876 21.0378 38.6651C20.8664 40.2425 24.0811 48.9814 25.7099 53.1537C25.3327 58.0575 28.4104 59.6548 29.9963 59.8404L33.7256 61.9838L34.6691 71.8852Z" fill="#CCCCCC"/>
<path opacity="0.2" d="M45.6506 69.7827L29.916 59.0545H36.3227L44.6948 55.3417L53.7687 46.74C54.0141 46.5074 54.4005 46.5139 54.6379 46.7546C54.8412 46.9608 54.8751 47.2801 54.7195 47.5243L46.6554 60.1784C46.4085 60.5659 46.3025 61.0267 46.3553 61.4833L47.2073 68.8414C47.3059 69.6925 46.3585 70.2653 45.6506 69.7827Z" fill="black"/>
<path d="M32.0804 37.4422C26.6971 38.3901 25.4361 36.6962 25.6921 35.2244C25.9481 33.7525 27.2364 32.1582 29.2197 30.3346C29.8493 29.7557 30.3676 29.3226 30.6471 28.7754" stroke="black" stroke-width="1.5" stroke-linecap="round" stroke-linejoin="round"/>
<path d="M36.9893 9.89292C40.2298 7.55559 47.8756 8.64089 50.3105 9.28275C52.148 9.43763 54.7064 9.90603 58.9034 12.0842C64.1496 14.8069 66.6066 19.4554 67.3371 21.7797C68.0676 24.104 67.2707 31.2092 67.3371 33.2679C67.3891 34.8798 65.8337 38.1715 64.9997 39.9918C64.9813 40.037 64.9634 40.0758 64.9464 40.1082C64.937 40.1303 64.9271 40.1529 64.9168 40.1761C64.9268 40.1532 64.9367 40.1306 64.9464 40.1082C64.9638 40.0701 64.9816 40.0313 64.9997 39.9918C65.2453 39.3892 65.592 37.6434 65.3449 34.53C65.0793 31.183 62.0024 31.8958 60.4971 32.6706C58.5254 31.204 56.6 32.6706 55.5148 33.7925C55.9929 31.2956 54.2356 26.6262 53.0402 24.5454C56.0358 21.8665 56.636 15.8173 54.7861 13.4124C53.4579 11.6858 50.4235 8.8647 47.5084 9.56091C44.1104 10.3725 39.5339 11.6766 36.9893 9.89292Z" fill="black"/>
<path d="M60.4971 32.6706C58.5254 31.204 56.6 32.6706 55.5148 33.7925C55.9929 31.2956 54.2356 26.6262 53.0402 24.5454C56.0358 21.8665 56.636 15.8173 54.7861 13.4124C53.4579 11.6858 50.4235 8.8647 47.5084 9.56091C44.1104 10.3725 39.5339 11.6766 36.9893 9.89292C40.2298 7.55559 47.8756 8.64089 50.3105 9.28275C52.148 9.43763 54.7064 9.90603 58.9034 12.0842C64.1496 14.8069 66.6066 19.4554 67.3371 21.7797C68.0676 24.104 67.2707 31.2092 67.3371 33.2679C67.3902 34.9148 65.7655 38.3152 64.9464 40.1082M60.4971 32.6706C62.0024 31.8958 65.0793 31.183 65.3449 34.53C65.6105 37.8769 65.1899 39.6433 64.9464 40.1082M60.4971 32.6706C60.1451 32.865 59.3335 33.4571 58.9034 34.2699M64.9464 40.1082C64.214 41.8167 61.0157 46.656 57.5094 43.8934M64.9464 40.1082C63.8616 42.5874 61.4529 48.3826 60.4971 51.7295C59.5414 55.0765 59.8558 61.5578 60.0993 63.6829L62.4236 66.4056" stroke="black" stroke-width="1.5" stroke-linecap="round" stroke-linejoin="round"/>
<path d="M37.325 9.71973C32.8757 11.9776 28.0661 18.4017 25.2106 22.9838C23.2684 26.1004 23.5404 28.4761 23.9511 29.7436C24.0661 30.0983 24.0252 30.4908 23.8069 30.793C22.7366 32.2752 21.1217 34.9623 20.9796 37.1884C20.7804 40.3095 25.6557 51.0799 25.6557 53.1933C25.6557 54.455 25.1692 58.1184 30.0834 58.9817M30.0834 58.9817C34.9976 59.845 39.2476 59.3801 45.0915 54.7316M30.0834 58.9817L34.2007 62.1547C34.2892 65.4309 34.7054 72.687 35.6616 75.5027" stroke="black" stroke-width="1.5" stroke-linecap="round" stroke-linejoin="round"/>
<path d="M12.021 83.8037C14.9431 80.8285 28.3349 74.2411 34.6655 71.3194V73.1789C32.3854 75.7024 30.4151 81.7587 36.7902 83.14C44.7592 84.8666 64.5486 69.7921 62.6228 64.9443C67.7583 67.5564 78.1754 73.0991 82.213 74.9054C86.2506 76.7116 93.126 82.0995 94.1221 83.1399L93.8068 94.0307L3.91895 94.6284C5.40205 92.2599 9.0988 86.779 12.021 83.8037Z" fill="black"/>
<path d="M62.6228 64.9443C67.7583 67.5564 78.1754 73.0991 82.213 74.9054C86.2506 76.7116 93.126 82.0995 94.1221 83.1399L93.8068 94.0307L3.91895 94.6284C5.40205 92.2599 9.0988 86.779 12.021 83.8037C14.9431 80.8285 28.3349 74.2411 34.6655 71.3194V73.1789C32.3854 75.7024 30.4151 81.7587 36.7902 83.14C44.7592 84.8666 64.5486 69.7921 62.6228 64.9443ZM62.6228 64.9443H61.2282" stroke="black" stroke-width="1.5" stroke-linecap="round" stroke-linejoin="round"/>
<path d="M61.3174 37.0225L59.8916 40.2645" stroke="black" stroke-width="1.5" stroke-linecap="round" stroke-linejoin="round"/>
<path d="M58.5977 38.4678L62.0521 39.0538" stroke="black" stroke-width="1.5" stroke-linecap="round" stroke-linejoin="round"/>
<path d="M33.5406 45.791C35.3344 45.6383 37.2909 43.8386 38.1814 43.2944C35.9071 43.1915 35.7901 42.9431 34.7333 42.821C32.3378 42.5441 30.4698 42.7553 29.2232 43.0484C27.3886 42.4981 26.0476 43.4563 25.6145 43.9561C25.6485 44.8831 26.1189 46.524 27.0702 46.2639C29.5166 45.5951 31.2984 45.9819 33.5406 45.791Z" fill="white" stroke="black" stroke-width="1.5" stroke-linecap="round" stroke-linejoin="round"/>
<path opacity="0.1" d="M45.6273 31.8891C46.2112 32.7886 45.5906 34.2278 44.2413 35.1035C42.892 35.9793 41.3249 35.96 40.741 35.0605C40.1572 34.1609 40.0885 32.5847 41.4378 31.7089C42.7871 30.8332 45.0435 30.9895 45.6273 31.8891Z" fill="black"/>
<ellipse cx="1.21958" cy="1.86103" rx="1.21958" ry="1.86103" transform="matrix(-0.995866 -0.0908393 -0.10193 0.994792 28.2939 26.9551)" fill="black"/>
<ellipse cx="1.31246" cy="1.96647" rx="1.31246" ry="1.96647" transform="matrix(-0.995866 -0.0908393 -0.10193 0.994792 41.4551 26.3193)" fill="black"/>
<path d="M37.4453 24.2419L45.1986 25.4804C45.4241 25.5164 45.6543 25.4533 45.8298 25.3071C46.3112 24.9063 46.1583 24.1317 45.5608 23.9438L38.0707 21.5889C37.0913 21.2809 36.1347 22.1227 36.3157 23.1334C36.4182 23.7055 36.8713 24.1502 37.4453 24.2419Z" fill="black"/>
<path d="M28.5316 24.6085L24.7505 25.6322C24.4111 25.7241 24.0532 25.5702 23.8864 25.2607C23.6939 24.9036 23.8173 24.4581 24.1662 24.2509L27.5343 22.2506C28.3517 21.7651 29.3959 22.299 29.4808 23.246C29.5368 23.8703 29.1366 24.4447 28.5316 24.6085Z" fill="black"/>
</g>
<defs>
<clipPath id="clip0_2295_1783">
<rect width="90" height="90" fill="white" transform="matrix(-1 0 0 1 90 0)"/>
</clipPath>
</defs>
</svg>
